PathFileType	4	(X/Y/Z)	C:/Users/opensim2020/Desktop/walking_exp_matlab/subject06_walking19_straight_01.trc	
DataRate	CameraRate	NumFrames	NumMarkers	Units	OrigDataRate	OrigDataStartFrame	OrigNumFrames	
100.00	100.00	5	49	mm	100.00	920	472	
Frame#	Time	LFHD			RFHD			LBHD			RBHD			C7			T10			CLAV			STRN			RBAK			LSHO			LUPA			LELB			LFRM			LWRA			LWRB			LFIN			RSHO			RUPA			RELB			RFRM			RWRA			RWRB			RFIN			LASI			RASI			LPSI			RPSI			LTHI			LKNE			LTIB			LANK			LHEE			LTOE			RTHI			RKNE			RTIB			RANK			RHEE			RTOE			*39			*40			*41			*42			*43			*44			*45			*46			*47			*48			
		X1	Y1	Z1	X2	Y2	Z2	X3	Y3	Z3	X4	Y4	Z4	X5	Y5	Z5	X6	Y6	Z6	X7	Y7	Z7	X8	Y8	Z8	X9	Y9	Z9	X10	Y10	Z10	X11	Y11	Z11	X12	Y12	Z12	X13	Y13	Z13	X14	Y14	Z14	X15	Y15	Z15	X16	Y16	Z16	X17	Y17	Z17	X18	Y18	Z18	X19	Y19	Z19	X20	Y20	Z20	X21	Y21	Z21	X22	Y22	Z22	X23	Y23	Z23	X24	Y24	Z24	X25	Y25	Z25	X26	Y26	Z26	X27	Y27	Z27	X28	Y28	Z28	X29	Y29	Z29	X30	Y30	Z30	X31	Y31	Z31	X32	Y32	Z32	X33	Y33	Z33	X34	Y34	Z34	X35	Y35	Z35	X36	Y36	Z36	X37	Y37	Z37	X38	Y38	Z38	X39	Y39	Z39	X40	Y40	Z40	X41	Y41	Z41	X42	Y42	Z42	X43	Y43	Z43	X44	Y44	Z44	X45	Y45	Z45	X46	Y46	Z46	X47	Y47	Z47	X48	Y48	Z48	X49	Y49	Z49	

60	0.590	1394.39001	-917.20422	1678.39746	1524.94165	-914.19672	1663.85583	1393.52979	-1046.96802	1615.94409	1522.51855	-1042.76172	1606.25256	1440.51758	-1040.00110	1463.49194	1440.69958	-1083.54980	1137.58972	1443.45508	-930.47485	1384.84863	1430.75415	-895.69446	1207.32507	1514.12036	-1116.32568	1292.33313	1281.87598	-972.18524	1422.36780	1209.07971	-945.54156	1221.77637	1198.60742	-929.02222	1109.52576	1197.28333	-854.00006	977.11963	1267.20337	-772.24902	893.98322	1214.57715	-812.17932	867.48706	1234.07715	-745.99200	808.57257	1602.87524	-978.82086	1413.31995	1687.60034	-1026.72778	1216.55603	1697.43835	-1021.25592	1093.97656	1711.90295	-1004.06036	974.81543	1675.39917	-938.34259	838.79108	1715.77502	-992.69226	837.48352	1716.27759	-952.59583	763.20563	1322.24182	-924.68262	965.87592	1541.77734	-907.06573	974.77295	1359.35632	-1077.37244	1002.97424	1527.00049	-1059.80847	1011.08258	1263.35181	-1013.83887	651.83502	1276.10693	-1016.65253	487.47873	1289.06140	-1193.50647	308.03601	1330.69275	-1305.61035	177.89597	1379.45813	-1341.15930	191.33492	1329.73145	-1222.17627	57.75441	1597.65820	-959.79016	645.86481	1571.07092	-955.64093	521.04474	1562.98889	-993.59003	258.34464	1513.37915	-1004.39484	72.86865	1471.07874	-1045.72522	49.06354	1503.98645	-850.99506	41.66252	1455.47192	-1019.11584	1708.84058																											 
61	0.600	1395.27234	-912.39709	1678.52563	1525.78467	-909.06946	1663.94397	1394.69092	-1042.13501	1616.11584	1523.62878	-1037.70276	1606.37732	1441.87305	-1035.22302	1463.70276	1442.24634	-1078.85486	1137.71875	1444.16736	-925.70538	1384.95349	1431.40393	-891.03619	1207.46570	1515.93616	-1111.20398	1292.57068	1282.77209	-968.27338	1422.47864	1209.77075	-942.80194	1221.78796	1199.12231	-926.80377	1109.46313	1196.80151	-853.06104	976.54633	1265.08362	-770.93707	892.42407	1212.95142	-811.95966	866.31915	1231.35999	-745.93207	806.89972	1603.87683	-973.06958	1413.52234	1688.93848	-1020.47675	1216.75598	1698.79248	-1014.84314	1094.15173	1713.17896	-997.21234	975.02460	1676.10889	-931.64124	839.13135	1716.87549	-985.51886	837.74408	1717.10803	-945.25775	763.51569	1323.66980	-919.15948	966.69690	1542.54932	-902.34241	974.70221	1360.57361	-1072.92896	1003.03735	1528.19690	-1054.99646	1011.03204	1263.98975	-1005.86230	651.89331	1276.45227	-1006.14709	487.63824	1289.40491	-1183.56555	309.25204	1330.89612	-1296.32288	179.89075	1380.32495	-1331.66382	192.68474	1327.02771	-1212.76868	60.33414	1598.03406	-956.04663	645.61615	1571.49097	-952.84192	520.72528	1563.23682	-992.30261	258.29929	1513.39417	-1004.17316	72.86341	1471.11230	-1045.70569	49.18359	1503.86243	-850.90698	41.56824	1456.59192	-1014.19714	1708.99463																											 
62	0.610	1396.11938	-907.65601	1678.63977	1526.63574	-904.09149	1664.05042	1395.77393	-1037.41040	1616.27124	1524.69934	-1032.70605	1606.51685	1443.13464	-1030.48840	1463.94214	1443.76587	-1074.28088	1137.93213	1444.93420	-920.95117	1385.17371	1432.00684	-886.59760	1207.62292	1517.76196	-1106.23511	1292.90845	1283.62634	-964.49603	1422.61951	1210.40820	-940.22150	1221.79639	1199.56921	-924.80219	1109.42358	1195.97180	-852.17645	975.89856	1262.87524	-769.94672	890.89026	1211.26074	-811.60352	865.15436	1228.66467	-745.98584	805.26965	1604.79626	-967.40240	1413.70325	1690.26721	-1014.30316	1217.00085	1700.17334	-1008.50958	1094.37024	1714.41235	-990.45215	975.30444	1676.89978	-924.59644	839.63263	1717.99915	-978.36945	838.06805	1718.05505	-937.99170	764.05975	1323.95154	-915.45459	966.78528	1543.42493	-897.59766	974.79913	1361.79480	-1068.39575	1003.08917	1529.33643	-1050.21997	1010.94537	1264.57190	-998.01788	652.20605	1276.82104	-995.94019	488.07349	1289.83630	-1173.47937	310.30408	1331.12024	-1286.27319	181.10016	1381.19275	-1321.42419	193.05090	1324.27307	-1202.27942	62.61948	1598.39478	-952.46265	645.37317	1571.89551	-950.30817	520.37238	1563.47058	-991.27405	258.17163	1513.42419	-1004.06995	72.88194	1471.13391	-1045.71069	49.24871	1503.88123	-850.85962	41.43567	1457.67810	-1009.28894	1709.10474																											 
63	0.620	1396.90857	-902.91669	1678.72046	1527.34485	-899.06238	1664.11255	1396.79993	-1032.68750	1616.47595	1525.74097	-1027.69177	1606.67224	1444.34998	-1025.89880	1464.13550	1445.20972	-1069.70056	1138.07922	1445.66882	-916.28290	1385.40149	1432.56165	-882.18518	1207.76697	1519.56665	-1101.29077	1293.22351	1284.48474	-960.73608	1422.74792	1210.98511	-937.81451	1221.81213	1200.00159	-922.92987	1109.38928	1195.11621	-851.46667	975.25299	1260.60669	-769.68762	889.07129	1209.54773	-811.95374	864.15009	1225.89282	-746.34839	803.58984	1605.68567	-961.73676	1413.86926	1691.64172	-1008.17511	1217.25232	1701.58057	-1001.86963	1094.56873	1715.47754	-983.57306	975.56335	1677.61450	-917.68030	840.11774	1719.04236	-971.16119	838.39996	1718.81543	-930.49878	764.44666	1325.18860	-910.23187	967.63013	1544.04382	-893.45758	974.67151	1362.89758	-1063.80615	1003.19482	1530.43164	-1045.53918	1010.87213	1265.14905	-990.19531	652.64691	1277.21228	-985.98303	488.66040	1290.32410	-1163.22729	311.13849	1331.32703	-1275.63745	181.59207	1382.05566	-1310.46887	192.50789	1321.22827	-1190.88330	64.35080	1598.83020	-949.00330	645.15527	1572.52417	-948.00616	520.14661	1563.75476	-990.36475	258.10617	1513.50635	-1003.98785	72.89614	1471.17102	-1045.76001	49.36182	1503.94958	-850.77570	41.24217	1458.65601	-1004.38507	1709.27246																											 
64	0.630	1397.71228	-897.77533	1678.99219	1528.03528	-894.00525	1664.20337	1397.77393	-1028.02112	1616.72241	1526.73621	-1022.75824	1606.88147	1445.53406	-1021.36798	1464.33447	1446.60095	-1065.16174	1138.27869	1446.29321	-911.83557	1385.49890	1433.19971	-877.67010	1207.98584	1521.33752	-1096.40137	1293.57043	1285.33069	-957.10181	1422.88513	1211.52795	-935.51563	1221.85742	1200.33826	-921.28137	1109.44849	1194.18335	-850.85602	974.67462	1258.37048	-768.69751	887.70715	1207.77881	-812.39307	863.11060	1223.08057	-747.17383	801.92993	1606.49646	-956.23962	1414.07275	1692.89868	-1001.94196	1217.46570	1702.81384	-995.73572	1094.81311	1715.59180	-975.78021	975.51984	1678.20837	-910.83508	840.64294	1719.94666	-964.00067	838.73877	1719.45886	-923.11304	764.90662	1326.06885	-905.49841	968.17938	1545.01526	-888.76624	974.87067	1363.89063	-1059.11865	1003.23425	1531.50085	-1040.92554	1010.76166	1265.66162	-982.40216	653.17310	1277.70410	-976.15027	489.32281	1290.81189	-1152.70996	311.51608	1331.53503	-1264.24866	181.19186	1382.86292	-1298.81384	191.02806	1318.47290	-1178.45776	65.52560	1599.30566	-945.71851	644.97229	1573.12488	-945.60767	519.76123	1563.96802	-989.54199	258.04123	1513.52197	-1003.88928	72.90662	1471.16052	-1045.78247	49.46338	1504.04736	-850.72742	41.00371	1459.58411	-999.50024	1709.51025																											 
